<svg version="1.1" id="Layer_1" xmlns="http://www.w3.org/2000/svg" xmlns:xlink="http://www.w3.org/1999/xlink" x="0px" y="0px"
	 width="100%" viewBox="0 0 622 570" enable-background="new 0 0 622 570" xml:space="preserve">
<path fill="#1E1E1E" opacity="1.000000" stroke="none" 
	d="
M357.000000,571.000000 
	C238.000000,571.000000 119.500000,571.000000 1.000000,571.000000 
	C1.000000,381.000000 1.000000,191.000000 1.000000,1.000000 
	C208.333328,1.000000 415.666656,1.000000 623.000000,1.000000 
	C623.000000,191.000000 623.000000,381.000000 623.000000,571.000000 
	C534.500000,571.000000 446.000000,571.000000 357.000000,571.000000 
M518.006714,138.812759 
	C520.835938,142.539444 523.511719,142.269302 526.126221,137.924866 
	C527.224731,136.359741 528.323303,134.794617 529.421814,133.229507 
	C527.884583,132.281052 526.151733,130.319412 524.846191,130.571396 
	C520.690918,131.373428 516.694763,132.999359 512.637085,134.306976 
	C512.598694,134.882843 512.560303,135.458725 512.521912,136.034607 
	C514.323486,136.691696 516.125122,137.348801 518.006714,138.812759 
M138.100540,287.513641 
	C134.536331,287.199066 130.728088,285.945648 127.466064,286.793579 
	C122.767067,288.015015 125.214020,292.701447 125.100998,295.826111 
	C125.048645,297.273438 126.971458,299.874084 128.327347,300.116821 
	C137.891357,301.829193 139.074234,300.672516 138.806976,291.079681 
	C138.779434,290.091370 138.574539,289.108032 138.100540,287.513641 
M260.873108,83.454880 
	C258.492004,84.463142 255.611465,84.977890 253.931076,86.678520 
	C253.030319,87.590141 253.541901,90.988541 254.562729,92.479881 
	C256.671265,95.560242 259.865143,95.736298 262.804199,93.348892 
	C265.960632,90.784935 265.436737,87.258392 260.873108,83.454880 
M79.622696,553.833740 
	C83.814125,553.527466 86.551834,551.336487 85.387352,547.140381 
	C84.847153,545.193787 81.975243,542.858521 79.974068,542.669189 
	C78.262054,542.507263 75.360832,544.789246 74.623245,546.642212 
	C73.247345,550.098694 75.329666,552.623474 79.622696,553.833740 
M556.193787,397.051117 
	C560.015686,400.259979 564.436035,399.729279 564.889404,395.896973 
	C565.060547,394.450226 564.632202,392.030670 563.703918,391.551117 
	C561.987671,390.664429 559.189453,390.042480 557.804504,390.887665 
	C556.559082,391.647705 556.604248,394.522522 556.193787,397.051117 
M24.995533,433.923187 
	C24.819242,436.689148 25.337729,439.198242 28.768902,438.909088 
	C30.258448,438.783539 32.558620,437.670807 32.857422,436.565094 
	C33.281162,434.997070 32.746624,432.055817 31.638739,431.423492 
	C29.428703,430.162170 26.465416,429.795441 24.995533,433.923187 
M453.152679,219.481400 
	C453.878937,221.380142 454.114960,224.116592 455.483643,224.917664 
	C456.617676,225.581390 459.766479,224.478745 460.745575,223.189117 
	C461.498657,222.197205 460.574982,218.294861 459.857330,218.136780 
	C457.857513,217.696289 455.576874,218.530807 453.152679,219.481400 
M560.682617,531.123535 
	C559.132812,531.898010 557.454590,532.514099 556.141052,533.579773 
	C555.876343,533.794495 556.730347,536.365295 557.537659,536.692627 
	C558.714905,537.169922 560.317017,536.598999 561.738037,536.474976 
	C561.574829,534.757690 561.411621,533.040466 560.682617,531.123535 
z"/>
<path fill="#9265AE" opacity="1.000000" stroke="none" 
	d="
M138.276245,287.817993 
	C138.574539,289.108032 138.779434,290.091370 138.806976,291.079681 
	C139.074234,300.672516 137.891357,301.829193 128.327347,300.116821 
	C126.971458,299.874084 125.048645,297.273438 125.100998,295.826111 
	C125.214020,292.701447 122.767067,288.015015 127.466064,286.793579 
	C130.728088,285.945648 134.536331,287.199066 138.276245,287.817993 
z"/>
<path fill="#3B2E4B" opacity="1.000000" stroke="none" 
	d="
M261.221161,83.607445 
	C265.436737,87.258392 265.960632,90.784935 262.804199,93.348892 
	C259.865143,95.736298 256.671265,95.560242 254.562729,92.479881 
	C253.541901,90.988541 253.030319,87.590141 253.931076,86.678520 
	C255.611465,84.977890 258.492004,84.463142 261.221161,83.607445 
z"/>
<path fill="#3B2E4B" opacity="1.000000" stroke="none" 
	d="
M79.246292,553.787720 
	C75.329666,552.623474 73.247345,550.098694 74.623245,546.642212 
	C75.360832,544.789246 78.262054,542.507263 79.974068,542.669189 
	C81.975243,542.858521 84.847153,545.193787 85.387352,547.140381 
	C86.551834,551.336487 83.814125,553.527466 79.246292,553.787720 
z"/>
<path fill="#7C5C96" opacity="1.000000" stroke="none" 
	d="
M556.136963,396.757812 
	C556.604248,394.522522 556.559082,391.647705 557.804504,390.887665 
	C559.189453,390.042480 561.987671,390.664429 563.703918,391.551117 
	C564.632202,392.030670 565.060547,394.450226 564.889404,395.896973 
	C564.436035,399.729279 560.015686,400.259979 556.136963,396.757812 
z"/>
<path fill="#7C5C96" opacity="1.000000" stroke="none" 
	d="
M25.043182,433.587036 
	C26.465416,429.795441 29.428703,430.162170 31.638739,431.423492 
	C32.746624,432.055817 33.281162,434.997070 32.857422,436.565094 
	C32.558620,437.670807 30.258448,438.783539 28.768902,438.909088 
	C25.337729,439.198242 24.819242,436.689148 25.043182,433.587036 
z"/>
<path fill="#5E4A75" opacity="1.000000" stroke="none" 
	d="
M453.279907,219.171631 
	C455.576874,218.530807 457.857513,217.696289 459.857330,218.136780 
	C460.574982,218.294861 461.498657,222.197205 460.745575,223.189117 
	C459.766479,224.478745 456.617676,225.581390 455.483643,224.917664 
	C454.114960,224.116592 453.878937,221.380142 453.279907,219.171631 
z"/>
<path fill="#3B2E4B" opacity="1.000000" stroke="none" 
	d="
M517.926697,138.005890 
	C516.125122,137.348801 514.323486,136.691696 512.521912,136.034607 
	C512.560303,135.458725 512.598694,134.882843 512.637085,134.306976 
	C516.694763,132.999359 520.690918,131.373428 524.846191,130.571396 
	C526.151733,130.319412 527.884583,132.281052 529.421814,133.229492 
	C528.323303,134.794617 527.224731,136.359741 525.859619,137.705521 
	C526.203674,136.323807 526.814270,135.161438 527.424927,133.999069 
	C527.030823,133.558029 526.636719,133.116989 526.242615,132.675949 
	C523.470642,134.452606 520.698669,136.229248 517.926697,138.005890 
z"/>
<path fill="#7C5C96" opacity="1.000000" stroke="none" 
	d="
M560.965515,531.223389 
	C561.411621,533.040466 561.574829,534.757690 561.738037,536.474976 
	C560.317017,536.598999 558.714905,537.169922 557.537659,536.692627 
	C556.730347,536.365295 555.876343,533.794495 556.141052,533.579773 
	C557.454590,532.514099 559.132812,531.898010 560.965515,531.223389 
z"/>
<path fill="#7C5C96" opacity="1.000000" stroke="none" 
	d="
M517.966675,138.409332 
	C520.698669,136.229248 523.470642,134.452606 526.242615,132.675949 
	C526.636719,133.116989 527.030823,133.558029 527.424927,133.999069 
	C526.814270,135.161438 526.203674,136.323807 525.527954,137.773071 
	C523.511719,142.269302 520.835938,142.539444 517.966675,138.409332 
z"/>
</svg>